<?xml version="1.0" encoding="UTF-8" standalone="no" ?>
<!DOCTYPE svg PUBLIC "-//W3C//DTD SVG 1.1//EN" "http://www.w3.org/Graphics/SVG/1.1/DTD/svg11.dtd">
<svg xmlns="http://www.w3.org/2000/svg" xmlns:xlink="http://www.w3.org/1999/xlink" version="1.1" width="1080" height="1080" viewBox="0 0 1080 1080" xml:space="preserve">
<desc>Created with Fabric.js 5.2.4</desc>
<defs>
</defs>
<g transform="matrix(1 0 0 1 540 540)" id="321a9685-42c6-42c3-8ed6-9a3eef0bf7f7"  >
</g>
<g transform="matrix(1 0 0 1 540 540)" id="265a9ac7-f35a-4d13-b5f0-d3ef6650073b"  >
<rect style="stroke: none; stroke-width: 1; stroke-dasharray: none; stroke-linecap: butt; stroke-dashoffset: 0; stroke-linejoin: miter; stroke-miterlimit: 4; fill: rgb(255,255,255); fill-rule: nonzero; opacity: 1; visibility: hidden;" vector-effect="non-scaling-stroke"  x="-540" y="-540" rx="0" ry="0" width="1080" height="1080" />
</g>
<g transform="matrix(14.21 0 0 14.21 547.09 497.35)"  >
<rect style="stroke: none; stroke-width: 1; stroke-dasharray: none; stroke-linecap: butt; stroke-dashoffset: 0; stroke-linejoin: miter; stroke-miterlimit: 4; fill: rgb(217,217,217); fill-rule: nonzero; opacity: 1;" vector-effect="non-scaling-stroke"  x="-37.5" y="-35" rx="10" ry="10" width="75" height="70" />
</g>
<g transform="matrix(14.21 0 0 14.21 245.31 244.52)"  >
<path style="stroke: none; stroke-width: 1; stroke-dasharray: none; stroke-linecap: butt; stroke-dashoffset: 0; stroke-linejoin: miter; stroke-miterlimit: 4; fill: rgb(255,190,190); fill-rule: nonzero; opacity: 1;" vector-effect="non-scaling-stroke"  transform=" translate(-17.27, -17.21)" d="M 0.737681 11.6698 C -0.254726 4.38341 6.69243 -1.44593 13.6958 0.796675 L 26.9342 5.03581 C 34.4322 7.43681 36.3435 17.1592 30.3124 22.2199 L 18.95 31.7541 C 12.9189 36.8148 3.6761 33.2442 2.6136 25.4432 L 0.737681 11.6698 Z" stroke-linecap="round" />
</g>
<g transform="matrix(14.21 0 0 14.21 774.43 716.09)"  >
<path style="stroke: none; stroke-width: 1; stroke-dasharray: none; stroke-linecap: butt; stroke-dashoffset: 0; stroke-linejoin: miter; stroke-miterlimit: 4; fill: rgb(255,190,190); fill-rule: nonzero; opacity: 1;" vector-effect="non-scaling-stroke"  transform=" translate(-54.5, -50.4)" d="M 46.7363 35.2403 C 50.2135 29.3102 58.7865 29.3102 62.2637 35.2403 L 74.6991 56.4476 C 78.2172 62.4474 73.8905 70 66.9353 70 L 42.0647 70 C 35.1095 70 30.7828 62.4474 34.3009 56.4476 L 46.7363 35.2403 Z" stroke-linecap="round" />
</g>
<g transform="matrix(14.21 0 0 14.21 500.54 473.08)"  >
<path style="stroke: none; stroke-width: 1; stroke-dasharray: none; stroke-linecap: butt; stroke-dashoffset: 0; stroke-linejoin: miter; stroke-miterlimit: 4; fill: rgb(126,112,112); fill-rule: nonzero; opacity: 1;" vector-effect="non-scaling-stroke"  transform=" translate(-35.23, -33.29)" d="M 15.0745 50.7778 C 16.1413 52.0269 16.7129 53.3202 16.7892 54.6578 C 16.8804 56.0949 16.3623 57.2949 15.2348 58.2578 C 14.0587 59.2623 12.8594 59.6484 11.6369 59.416 C 10.8112 59.2375 10.1974 58.913 9.79562 58.4426 C 9.44232 58.0289 9.44994 57.6437 9.81848 57.2868 C 10.1882 56.9149 10.4978 56.875 10.7472 57.167 C 10.8315 57.2493 10.8955 57.3489 10.9393 57.4658 C 10.9761 57.5747 11.0054 57.6829 11.0272 57.7905 C 11.0765 58.0289 11.122 58.1725 11.1635 58.2211 C 11.3702 58.4795 11.629 58.6512 11.9401 58.7362 C 12.8088 58.85 13.6527 58.557 14.4719 57.8573 C 15.3642 57.0953 15.7893 56.115 15.7475 54.9163 C 15.6985 53.8078 15.229 52.7079 14.3389 51.6164 L 10.1658 55.1806 L 9.79174 54.7426 L 13.9527 51.1888 C 12.9619 50.1273 11.9472 49.4649 10.9088 49.2016 C 9.84712 48.944 8.95536 49.1235 8.23348 49.74 C 7.59271 50.2873 7.17548 51.0224 6.9818 51.9453 C 6.87312 52.5572 6.88567 53.3109 7.01945 54.2067 L 6.61493 54.2997 L 5.62405 51.3164 L 6.57048 50.971 C 6.82499 50.3328 7.2564 49.7539 7.86472 49.2344 C 8.87049 48.3754 10.0684 48.1027 11.4585 48.4164 C 12.7885 48.7253 13.9938 49.5125 15.0745 50.7778 Z M 28.291 44.2031 C 28.3512 44.2078 28.4114 44.2125 28.4715 44.2173 C 28.5247 44.2139 28.5814 44.2146 28.6416 44.2193 C 29.1302 45.317 29.1728 46.0731 28.7695 46.4878 C 28.3882 46.8134 27.9455 46.9109 27.4413 46.7804 C 26.9522 46.6512 26.3707 46.3973 25.6968 46.019 C 24.5951 45.501 23.7691 45.1825 23.2186 45.0636 C 22.6681 44.9446 22.2995 44.9648 22.113 45.1241 L 21.7845 45.4046 L 24.403 48.4706 C 24.5832 48.6815 24.7809 48.7651 24.9961 48.7216 C 25.2195 48.671 25.5015 48.5003 25.8422 48.2094 L 26.1851 48.6109 L 23.545 50.8657 L 23.2021 50.4642 C 23.5671 50.1525 23.7804 49.8931 23.8421 49.6862 C 23.8968 49.4711 23.8446 49.2702 23.6852 49.0837 L 21.0666 46.0177 L 20.7382 46.2983 C 20.6246 46.3953 20.5444 46.597 20.4976 46.9035 C 20.4589 47.2031 20.4767 47.6017 20.551 48.0993 C 20.5736 48.3886 20.6298 48.6843 20.7195 48.9865 C 20.8092 49.2886 20.9059 49.5988 21.0094 49.9172 C 21.1061 50.2274 21.2027 50.5376 21.2993 50.8479 C 21.389 51.15 21.4458 51.4382 21.4696 51.7124 C 21.5004 51.9948 21.4878 52.251 21.4318 52.4812 C 21.3759 52.7113 21.2465 52.913 21.0437 53.0862 C 20.6139 53.4533 19.8737 53.2929 18.8232 52.605 C 18.8361 52.5379 18.8443 52.4818 18.8478 52.4367 C 18.8444 52.3835 18.8451 52.3268 18.8498 52.2666 C 19.5009 52.454 19.9035 52.4819 20.0576 52.3503 C 20.2036 52.2256 20.2854 52.0505 20.3032 51.8249 C 20.314 51.5912 20.2914 51.3019 20.2353 50.9571 C 20.1723 50.6041 20.084 50.1886 19.9703 49.7106 C 19.8496 49.2244 19.7309 48.6665 19.614 48.037 C 19.6127 47.477 19.6748 47.0241 19.8003 46.6784 C 19.5955 46.685 19.3313 46.6302 19.0075 46.5139 C 18.6919 46.3907 18.3139 46.1945 17.8736 45.9253 C 17.476 45.6897 17.1316 45.5 16.8403 45.356 C 16.549 45.212 16.2917 45.1161 16.0685 45.0683 C 15.8465 45.0054 15.6544 44.9941 15.4924 45.0343 C 15.3315 45.0595 15.1862 45.1275 15.0564 45.2383 C 15.0159 45.2729 14.9829 45.3082 14.9573 45.344 C 14.933 45.3648 14.9081 45.3931 14.8826 45.4289 C 14.8721 45.4659 14.8627 45.537 14.8544 45.6423 C 14.8473 45.7325 14.8356 45.8337 14.8192 45.9459 C 14.7958 46.05 14.7644 46.161 14.7249 46.279 C 14.6784 46.3888 14.6187 46.4749 14.5457 46.5372 L 14.5353 46.5251 C 14.1657 46.7986 13.8077 46.7326 13.4614 46.3271 C 13.2882 46.1243 13.2285 45.8737 13.2822 45.5753 C 13.3372 45.2619 13.4875 44.9862 13.7332 44.7483 C 14.0252 44.4989 14.3141 44.3363 14.6 44.2604 C 14.8871 44.1695 15.1874 44.1516 15.5008 44.2065 C 15.8142 44.2614 16.1565 44.3829 16.5275 44.571 C 16.9067 44.7522 17.3309 44.9861 17.8001 45.2727 C 19.017 46.0569 19.8647 46.2447 20.3433 45.836 L 20.6718 45.5554 L 18.1259 42.5746 C 17.9251 42.3394 17.706 42.2389 17.4687 42.2732 C 17.2396 42.3006 16.9547 42.4597 16.6141 42.7507 L 16.2815 42.3614 L 18.9217 40.1065 L 19.2542 40.4958 C 19.0514 40.669 18.899 40.8272 18.7969 40.9705 C 18.696 41.0988 18.6334 41.2224 18.6088 41.3416 C 18.5855 41.4456 18.5963 41.5486 18.6413 41.6505 C 18.6862 41.7524 18.7537 41.8561 18.8438 41.9615 L 21.3896 44.9423 L 21.7181 44.6618 C 22.1885 44.26 22.1357 43.3933 21.5596 42.0618 C 21.3614 41.5998 21.2042 41.194 21.0879 40.8444 C 20.9798 40.4879 20.9092 40.1835 20.8761 39.9312 L 20.8449 39.8947 C 20.8258 39.5603 20.8913 39.2098 21.0412 38.8433 C 21.191 38.4769 21.3998 38.1793 21.6675 37.9507 L 21.69 37.9525 C 21.9472 37.7609 22.2349 37.6625 22.5531 37.6572 C 22.8643 37.6439 23.1066 37.7386 23.2797 37.9414 C 23.6538 38.3794 23.6624 38.7508 23.3055 39.0556 C 23.1271 39.208 22.8997 39.262 22.6232 39.2175 C 22.3838 39.1836 22.2288 39.1827 22.1581 39.215 C 22.0806 39.2391 22.0093 39.2789 21.9445 39.3343 C 21.8066 39.4521 21.7086 39.5919 21.6504 39.7538 C 21.5935 39.9006 21.5787 40.0886 21.606 40.3177 C 21.6265 40.5388 21.6885 40.8084 21.792 41.1268 C 21.8887 41.437 22.0222 41.8069 22.1927 42.2364 C 22.5578 43.1731 22.7053 43.8467 22.6351 44.2573 C 22.8817 44.201 23.1628 44.1853 23.4786 44.2102 C 23.7875 44.2269 24.1842 44.33 24.6686 44.5195 C 25.1034 44.6672 25.5034 44.8235 25.8687 44.9884 C 26.2352 45.1383 26.5653 45.2702 26.859 45.3841 C 27.1538 45.483 27.41 45.5448 27.6274 45.5694 C 27.853 45.5872 28.0388 45.5337 28.1848 45.409 C 28.3389 45.2774 28.3743 44.8754 28.291 44.2031 Z M 31.3085 30.2215 C 30.9435 30.5333 30.7301 30.7926 30.6684 30.9996 C 30.5894 31.2355 30.62 31.567 30.7604 31.9942 C 31.2091 33.4065 31.644 34.8025 32.065 36.1824 C 32.4791 37.5541 32.9105 38.9461 33.3592 40.3584 C 33.5881 41.1028 33.6693 41.6577 33.6027 42.0231 C 33.5641 42.2244 33.4898 42.4001 33.3796 42.5503 C 33.2764 42.7086 33.1396 42.8605 32.9692 43.006 C 32.7665 43.1792 32.5308 43.2893 32.2623 43.3362 C 31.9349 43.3634 31.6707 43.2594 31.4698 43.0242 C 31.3174 42.8458 31.2448 42.6622 31.2521 42.4737 C 31.2524 42.277 31.3256 42.1163 31.4716 41.9916 C 31.8366 41.6799 32.1542 41.6822 32.4244 41.9985 C 32.5283 42.1202 32.6271 42.162 32.7209 42.124 C 32.7903 42.1067 32.8535 42.0739 32.9102 42.0254 C 32.9427 41.9977 32.9903 41.922 33.0529 41.7983 C 33.1031 41.545 33.019 41.0277 32.8006 40.2464 C 32.7374 39.9917 32.6736 39.7446 32.6093 39.505 C 32.5461 39.2503 32.4829 38.9957 32.4197 38.7411 C 31.215 38.2831 30.0206 37.8373 28.8366 37.4036 C 27.6608 36.9631 26.4705 36.5138 25.2657 36.0558 C 25.0831 35.9734 24.9229 35.9418 24.7852 35.9613 C 24.6243 35.9864 24.3817 36.1376 24.0572 36.4147 L 23.7247 36.0253 L 26.0972 33.9991 L 26.4297 34.3884 C 26.0323 34.7278 25.8392 34.9699 25.8505 35.1145 C 25.8388 35.1666 25.8434 35.2047 25.8642 35.2291 C 25.9127 35.2859 25.967 35.3166 26.0272 35.3213 C 26.1231 35.3516 26.2232 35.3784 26.3273 35.4017 C 26.4313 35.425 26.5314 35.4518 26.6273 35.4821 C 27.5327 35.803 28.4218 36.1378 29.2947 36.4864 C 30.1757 36.8281 31.0689 37.1594 31.9742 37.4803 C 31.6774 36.5415 31.3869 35.6183 31.1027 34.7108 C 30.8266 33.7963 30.5361 32.8731 30.2312 31.9412 C 30.2151 31.8567 30.1759 31.778 30.1136 31.705 C 30.072 31.6563 30.0287 31.6302 29.9836 31.6266 C 29.7881 31.6112 29.4997 31.7663 29.1185 32.0919 L 28.786 31.7026 L 30.9759 29.8322 L 31.3085 30.2215 Z M 39.4947 23.2298 C 39.1297 23.5415 38.9164 23.8009 38.8547 24.0079 C 38.7756 24.2438 38.8062 24.5753 38.9466 25.0025 C 39.3954 26.4148 39.8302 27.8108 40.2512 29.1907 C 40.6653 30.5624 41.0967 31.9544 41.5454 33.3667 C 41.7744 34.111 41.8555 34.6659 41.7889 35.0314 C 41.7504 35.2327 41.676 35.4084 41.5659 35.5586 C 41.4626 35.7169 41.3258 35.8688 41.1555 36.0143 C 40.9527 36.1875 40.7171 36.2976 40.4486 36.3445 C 40.1211 36.3717 39.8569 36.2677 39.656 36.0325 C 39.5036 35.854 39.4311 35.6705 39.4383 35.482 C 39.4387 35.2853 39.5119 35.1246 39.6579 34.9999 C 40.0229 34.6882 40.3404 34.6905 40.6106 35.0068 C 40.7145 35.1285 40.8134 35.1703 40.9071 35.1323 C 40.9766 35.115 41.0397 35.0822 41.0965 35.0337 C 41.1289 35.006 41.1765 34.9303 41.2392 34.8066 C 41.2894 34.5533 41.2053 34.036 40.9868 33.2547 C 40.9236 33 40.8599 32.7529 40.7955 32.5133 C 40.7323 32.2586 40.6691 32.004 40.606 31.7493 C 39.4012 31.2914 38.2068 30.8456 37.0229 30.4119 C 35.847 29.9714 34.6567 29.5221 33.452 29.0641 C 33.2693 28.9816 33.1091 28.9501 32.9714 28.9695 C 32.8106 28.9947 32.5679 29.1458 32.2435 29.4229 L 31.911 29.0336 L 34.2834 27.0073 L 34.6159 27.3967 C 34.2185 27.7361 34.0254 27.9782 34.0368 28.1228 C 34.0251 28.1748 34.0297 28.213 34.0504 28.2374 C 34.0989 28.2941 34.1533 28.3249 34.2134 28.3296 C 34.3094 28.3599 34.4094 28.3867 34.5135 28.41 C 34.6176 28.4333 34.7176 28.4601 34.8136 28.4903 C 35.7189 28.8113 36.608 29.1461 37.4809 29.4947 C 38.3619 29.8364 39.2551 30.1677 40.1604 30.4886 C 39.8636 29.5498 39.5731 28.6266 39.2889 27.719 C 39.0129 26.8046 38.7224 25.8814 38.4174 24.9495 C 38.4014 24.865 38.3622 24.7862 38.2998 24.7132 C 38.2583 24.6646 38.2149 24.6385 38.1698 24.6349 C 37.9743 24.6195 37.686 24.7746 37.3047 25.1002 L 36.9722 24.7109 L 39.1622 22.8405 L 39.4947 23.2298 Z M 55.4671 23.5807 L 52.3768 26.22 L 52.0443 25.8307 C 52.2876 25.6229 52.4649 25.4363 52.5763 25.2711 C 52.7027 25.107 52.7787 24.9579 52.8044 24.8237 C 52.8313 24.6745 52.8229 24.5415 52.7791 24.4245 C 52.7284 24.2995 52.6546 24.1802 52.5576 24.0666 L 47.9024 18.6161 C 47.9645 20.1341 48.0312 21.6412 48.1026 23.1372 C 48.1752 24.6183 48.2425 26.1178 48.3047 27.6359 C 48.4293 27.7819 48.5529 27.8937 48.6754 27.9715 C 48.791 28.0411 48.9171 28.0737 49.0536 28.0693 C 49.1982 28.058 49.354 28.0022 49.5207 27.9018 C 49.7025 27.8026 49.9151 27.6491 50.1585 27.4413 L 50.491 27.8306 L 47.4007 30.47 L 47.0682 30.0807 C 47.5062 29.7066 47.7543 29.3894 47.8126 29.1292 C 47.8721 28.854 47.8014 28.5987 47.6005 28.3635 L 42.2595 22.1099 C 42.0239 21.8342 41.7835 21.7169 41.5381 21.7581 C 41.294 21.7843 40.9448 21.9913 40.4906 22.3793 L 40.158 21.9899 L 43.2483 19.3506 L 43.5808 19.7399 C 43.3456 19.9408 43.1614 20.1192 43.028 20.2752 C 42.8947 20.4312 42.8077 20.5756 42.7669 20.7086 C 42.7343 20.8346 42.7434 20.9602 42.794 21.0852 C 42.8378 21.2022 42.9151 21.3255 43.0259 21.4553 L 47.6604 26.8816 C 47.6525 26.7901 47.6412 26.5963 47.6267 26.3001 C 47.6053 25.9958 47.581 25.6307 47.554 25.2049 C 47.5351 24.7722 47.5157 24.2978 47.4958 23.7818 C 47.469 23.2576 47.4421 22.7335 47.4153 22.2093 C 47.3896 21.6701 47.3663 21.15 47.3452 20.649 C 47.3171 20.1399 47.2925 19.684 47.2712 19.2813 C 47.2581 18.8718 47.2465 18.538 47.2365 18.2799 C 47.2197 18.0138 47.2095 17.8541 47.2061 17.8009 C 47.026 17.59 46.7942 17.5075 46.5107 17.5532 C 46.2283 17.584 45.8803 17.776 45.4667 18.1293 L 45.1341 17.74 L 48.2244 15.1006 L 48.5569 15.4899 C 48.1433 15.8432 47.8957 16.1529 47.8143 16.4188 C 47.7328 16.6848 47.7856 16.9273 47.9726 17.1463 L 53.3241 23.412 C 53.428 23.5337 53.5337 23.6328 53.6412 23.7093 C 53.7417 23.7778 53.8602 23.8098 53.9967 23.8054 C 54.1333 23.801 54.2884 23.7527 54.4621 23.6604 C 54.6508 23.5694 54.875 23.413 55.1346 23.1913 L 55.4671 23.5807 Z M 64.8335 15.602 L 61.6337 18.3349 L 61.3116 17.9577 C 61.7334 17.5975 61.9867 17.2618 62.0717 16.9508 C 62.1556 16.6547 62.0797 16.3688 61.8442 16.0931 L 55.942 9.18249 L 51.6959 12.809 L 57.5981 19.7196 C 57.8267 19.9872 58.0931 20.1104 58.3975 20.0889 C 58.7261 20.0467 59.0973 19.8489 59.5109 19.4956 L 59.8331 19.8728 L 56.6454 22.5953 L 56.3233 22.2181 C 56.7613 21.844 57.0234 21.4939 57.1096 21.1678 C 57.1297 20.9122 57.0255 20.6505 56.7969 20.3828 L 51.5285 14.2144 C 51.2792 13.9224 51.044 13.7867 50.8229 13.8071 C 50.6771 13.8334 50.5162 13.9078 50.3401 14.0301 C 50.1571 14.1443 49.952 14.2984 49.7249 14.4924 L 49.382 14.0909 L 57.5701 7.09763 L 57.913 7.49913 C 57.4182 7.9217 57.1353 8.24746 57.0643 8.47642 C 56.9934 8.70537 57.0826 8.96585 57.332 9.25784 L 62.6003 15.4263 C 62.8358 15.702 63.0861 15.839 63.351 15.8371 C 63.6541 15.8307 64.0409 15.6266 64.5114 15.2248 L 64.8335 15.602 Z" stroke-linecap="round" />
</g>
</svg>